<svg width="48" height="48" viewBox="0 0 48 48" fill="none" xmlns="http://www.w3.org/2000/svg">
<path d="M40 11.9692H16.44C14.22 9.50921 10.42 9.32921 8 11.5692C6.72 12.6892 6 14.2892 6 15.9692V33.9692C5.46957 33.9692 4.96086 34.1799 4.58579 34.555C4.21071 34.9301 4 35.4388 4 35.9692V37.9692H20V35.9692C20 35.4388 19.7893 34.9301 19.4142 34.555C19.0391 34.1799 18.5304 33.9692 18 33.9692V19.9692H40C41.0609 19.9692 42.0783 19.5478 42.8284 18.7976C43.5786 18.0475 44 17.0301 44 15.9692C44 14.9083 43.5786 13.8909 42.8284 13.1408C42.0783 12.3906 41.0609 11.9692 40 11.9692ZM12 18.9692C11.2044 18.9692 10.4413 18.6531 9.87868 18.0905C9.31607 17.5279 9 16.7649 9 15.9692C9 15.1736 9.31607 14.4105 9.87868 13.8479C10.4413 13.2853 11.2044 12.9692 12 12.9692C12.7956 12.9692 13.5587 13.2853 14.1213 13.8479C14.6839 14.4105 15 15.1736 15 15.9692C15 16.7649 14.6839 17.5279 14.1213 18.0905C13.5587 18.6531 12.7956 18.9692 12 18.9692ZM21 17.9692L18 13.9692H21L24 17.9692H21ZM29 17.9692L26 13.9692H29L32 17.9692H29ZM37 17.9692L34 13.9692H37L40 17.9692H37Z" fill="white" fill-opacity="0.3"/>
</svg>
